<svg width="640" height="480" xmlns="http://www.w3.org/2000/svg" xmlns:svg="http://www.w3.org/2000/svg">
 <!-- Created with SVG-edit - https://github.com/SVG-Edit/svgedit-->
 <g class="layer">
  <title>Layer 1</title>
  <path d="m35,36.5c0,0 -32,152 50,60c82,-92 84,-76 170,-37c86,39 110,45 131,13c21,-32 47,-35 68,-35c21,0 123,131 12,68c-111,-63 -177,-118 -226,-81c-49,37 -163,121 -38,118c125,-3 194,-202 330,-115c136,87 -14,200 7,271c21,71 52,69 75,107c23,38 -19,99 -84,31c-65,-68 99,-168 93,-208c-6,-40 -250,-115 -153,-142c97,-27 162,6 157,-27c-5,-33 -132,-54 -107,37c25,91 166,-71 92,63c-74,134 -90,-20 -127,35c-37,55 144,65 130,124c-14,59 10,146 -126,127c-136,-19 -376,-144 -429,-85c-53,59 -66,116 42,60c108,-56 166,-24 194,21c28,45 -196,-22 31,-66c227,-44 406,-31 244,32c-162,63 -242,96 -234,34c8,-62 30,-52 115,-52c85,0 52,83 22,76c-30,-7 -172,-65 -241,-35c-69,30 -163,20 -170,-17c-7,-37 -24,-54 -36,-88c-12,-34 21,-46 20,-92c-1,-46 -37,-74 -38,-88c-1,-14 27,-84 55,-87c28,-3 -49,-106 -54,-18c-5,88 80,121 67,172c-13,51 -68,70 -64,43c4,-27 -2,-134 19,-103c21,31 74,115 71,147c-3,32 -85,-52 -87,-10c-2,42 -18,81 59,77c77,-4 423,3 147,92c-276,89 -207,-219 -196,-225c11,-6 164,286 145,180c-19,-106 -278,-256 -99,-316c179,-60 148,88 64,68c-84,-20 -130,-179 -80,-155c50,24 76,58 113,33c37,-25 -155,-51 -43,67c112,118 -10,27 100,-31c110,-58 166,27 166,27c0,0 139,112 221,83c82,-29 -118,-60 -115,93c3,153 125,191 125,181c0,-10 69,-347 -152,-200c-221,147 -234,97 -317,59c-83,-38 -100,-79 -100,-79.5l-40,-47.5" fill="none" id="svg_14" stroke="#00ffff" stroke-width="5" transform="matrix(1 0 0 1 0 0)"/>
  <ellipse cx="307.5" cy="241" fill="#001fd1" id="svg_11" rx="37.5" ry="37.5" stroke="#00ffff" stroke-width="5"/>
 </g>
</svg>